<?xml version="1.0" encoding="utf-8"?>
<!-- Generator: Adobe Illustrator 24.3.0, SVG Export Plug-In . SVG Version: 6.00 Build 0)  -->
<svg version="1.1" id="레이어_1" xmlns="http://www.w3.org/2000/svg" xmlns:xlink="http://www.w3.org/1999/xlink" x="0px"
	 y="0px" viewBox="0 0 136.48 50.7" style="enable-background:new 0 0 136.48 50.7;" xml:space="preserve">
<style type="text/css">
	.st0{fill:#FFFFFF;}
</style>
<g>
	<g>
		<g>
			<path class="st0" d="M6.82,25.11c0.03,1.4,0.45,2.54,1.25,3.43c1.22,1.37,3.23,2.05,6.02,2.05c1.99,0,3.58-0.28,4.77-0.85
				c1.55-0.74,2.32-1.93,2.32-3.57c0-1.25-0.58-2.21-1.74-2.9c-0.83-0.47-2.3-0.94-4.42-1.38l-3.66-0.94
				c-1.84-0.45-3.2-0.8-4.06-1.07c-1.4-0.47-2.54-1.03-3.43-1.65c-1.1-0.77-1.92-1.72-2.45-2.85c-0.59-1.28-0.89-2.82-0.89-4.64
				C0.51,8.07,1.29,5.8,2.9,3.92C5.16,1.31,8.73,0,13.6,0c4.61,0,8.1,1.35,10.48,4.06c1.78,2.02,2.71,4.43,2.77,7.23h-6.73
				c-0.18-1.34-0.6-2.39-1.25-3.17c-1.19-1.34-3.12-2.01-5.8-2.01c-1.58,0-2.9,0.3-3.97,0.89c-1.31,0.74-1.96,1.83-1.96,3.26
				c0,1.13,0.4,1.99,1.2,2.59c0.48,0.36,1.25,0.68,2.32,0.98l0.09,0.04l8.34,2.14c2.77,0.65,4.82,1.55,6.16,2.68
				c1.84,1.55,2.77,3.78,2.77,6.69c0,4.43-1.87,7.61-5.62,9.54c-2.29,1.19-4.89,1.78-7.81,1.78c-5.5,0-9.49-1.41-11.95-4.24
				C0.88,30.48,0,28.02,0,25.11H6.82z"/>
			<path class="st0" d="M41.38,20.69h-11.5v-5.4h11.5V20.69z"/>
			<path class="st0" d="M51.55,35.86h-7.14V0.89h15.3c3.27,0,5.86,1.01,7.76,3.03c1.87,1.99,2.81,4.73,2.81,8.21
				c-0.03,2.47-0.7,4.71-2.01,6.73c-1.93,2.94-4.88,4.42-8.83,4.42h-7.89V35.86z M57.88,17.3c2.26,0,3.81-0.73,4.64-2.19
				c0.45-0.8,0.67-1.9,0.67-3.3c0-1.72-0.51-2.97-1.52-3.75c-0.98-0.77-2.54-1.16-4.68-1.16h-5.44V17.3H57.88z"/>
			<path class="st0" d="M79.52,3.03C82.31,1.01,85.58,0,89.33,0c3.72,0,6.97,1.01,9.77,3.03c4.31,3.12,6.47,8.24,6.47,15.34
				c0,7.05-2.16,12.13-6.47,15.25c-2.83,2.05-6.08,3.08-9.77,3.08c-3.72,0-6.99-1.03-9.81-3.08c-4.28-3.12-6.42-8.21-6.42-15.25
				C73.09,11.27,75.23,6.16,79.52,3.03z M83.31,28.01c1.61,1.61,3.61,2.41,6.02,2.41c2.38,0,4.37-0.8,5.98-2.41
				c2.11-2.08,3.17-5.29,3.17-9.63c0-4.37-1.06-7.61-3.17-9.72c-1.61-1.61-3.6-2.41-5.98-2.41c-2.41,0-4.42,0.8-6.02,2.41
				c-2.08,2.11-3.12,5.35-3.12,9.72C80.18,22.72,81.23,25.93,83.31,28.01z"/>
			<path class="st0" d="M115.29,25.11c0.03,1.4,0.45,2.54,1.25,3.43c1.22,1.37,3.23,2.05,6.02,2.05c1.99,0,3.58-0.28,4.77-0.85
				c1.55-0.74,2.32-1.93,2.32-3.57c0-1.25-0.58-2.21-1.74-2.9c-0.83-0.47-2.3-0.94-4.42-1.38l-3.66-0.94
				c-1.84-0.45-3.2-0.8-4.06-1.07c-1.4-0.47-2.54-1.03-3.43-1.65c-1.1-0.77-1.92-1.72-2.45-2.85c-0.59-1.28-0.89-2.82-0.89-4.64
				c-0.03-2.68,0.76-4.95,2.36-6.82C113.63,1.31,117.2,0,122.07,0c4.61,0,8.1,1.35,10.48,4.06c1.78,2.02,2.71,4.43,2.77,7.23h-6.73
				c-0.18-1.34-0.6-2.39-1.25-3.17c-1.19-1.34-3.12-2.01-5.8-2.01c-1.58,0-2.9,0.3-3.97,0.89c-1.31,0.74-1.96,1.83-1.96,3.26
				c0,1.13,0.4,1.99,1.2,2.59c0.48,0.36,1.25,0.68,2.32,0.98l0.09,0.04l8.34,2.14c2.77,0.65,4.82,1.55,6.16,2.68
				c1.84,1.55,2.77,3.78,2.77,6.69c0,4.43-1.87,7.61-5.62,9.54c-2.29,1.19-4.89,1.78-7.81,1.78c-5.5,0-9.49-1.41-11.95-4.24
				c-1.75-1.99-2.63-4.44-2.63-7.36H115.29z"/>
		</g>
		<g>
			<path class="st0" d="M2.78,49.38v-1.01h0.17c0.44,0.26,0.87,0.45,1.27,0.57c0.4,0.12,0.82,0.19,1.26,0.19
				c0.61,0,1.08-0.1,1.42-0.29c0.33-0.19,0.5-0.51,0.5-0.95c0-0.31-0.15-0.59-0.46-0.84c-0.31-0.25-0.7-0.45-1.16-0.62
				c-0.51-0.18-0.94-0.35-1.29-0.51c-0.35-0.16-0.64-0.32-0.86-0.5c-0.22-0.18-0.38-0.37-0.48-0.57c-0.1-0.2-0.15-0.44-0.15-0.71
				c0-0.32,0.08-0.6,0.23-0.83c0.15-0.23,0.36-0.43,0.62-0.58c0.26-0.15,0.57-0.26,0.91-0.34c0.34-0.07,0.7-0.11,1.08-0.11
				c0.39,0,0.79,0.03,1.22,0.09c0.42,0.06,0.8,0.19,1.13,0.38v0.92H7.99c-0.65-0.36-1.35-0.54-2.11-0.54
				c-0.53,0-0.93,0.08-1.22,0.23c-0.29,0.15-0.43,0.4-0.43,0.75c0,0.31,0.13,0.55,0.39,0.74c0.26,0.19,0.58,0.35,0.97,0.47
				c0.57,0.19,1.06,0.38,1.45,0.57c0.39,0.19,0.71,0.38,0.96,0.58c0.25,0.2,0.42,0.41,0.53,0.63c0.11,0.22,0.16,0.47,0.16,0.73
				c0,0.75-0.28,1.3-0.85,1.65C7.26,49.82,6.46,50,5.43,50c-0.53,0-1.01-0.05-1.46-0.16S3.13,49.58,2.78,49.38z"/>
			<path class="st0" d="M21.21,44.43l-1.08,2.9H19.1l-1.07-2.91l-0.14-0.66v0.43l-0.24,5.67h-1.17l0.38-7.45h1.31L19.47,46
				l0.14,0.59L19.75,46l1.35-3.59h1.33l0.28,7.45h-1.17l-0.19-5.66v-0.43L21.21,44.43z"/>
			<path class="st0" d="M34.19,42.41l2.72,7.45h-1.25l-0.69-2h-2.94l-0.69,2h-1.22l2.67-7.45H34.19z M33.5,43.29l-0.11,0.45
				l-1.1,3.36h2.42l-1.08-3.36L33.5,43.29z"/>
			<path class="st0" d="M48.58,46.53l2.26,3.33h-1.5l-1.83-3.1h-1.53v3.1h-1.19v-7.45h2.29c1.1,0,1.91,0.18,2.42,0.55
				c0.51,0.37,0.76,0.88,0.76,1.52c0,0.55-0.15,0.99-0.46,1.33C49.48,46.16,49.08,46.4,48.58,46.53z M49.02,44.5
				c0-0.24-0.05-0.44-0.14-0.61c-0.09-0.16-0.22-0.3-0.38-0.4c-0.16-0.1-0.35-0.17-0.58-0.21c-0.23-0.04-0.47-0.07-0.73-0.07h-1.22
				v2.76h0.83c0.37,0,0.69-0.02,0.97-0.05s0.51-0.11,0.69-0.21c0.19-0.11,0.32-0.25,0.41-0.44C48.98,45.06,49.02,44.81,49.02,44.5z"
				/>
			<path class="st0" d="M61.88,49.86h-1.19v-6.65h-2.57v-0.8h6.33v0.8h-2.57V49.86z"/>
			<path class="st0" d="M72.21,49.38v-1.01h0.17c0.44,0.26,0.87,0.45,1.27,0.57c0.4,0.12,0.82,0.19,1.26,0.19
				c0.61,0,1.08-0.1,1.42-0.29c0.33-0.19,0.5-0.51,0.5-0.95c0-0.31-0.15-0.59-0.46-0.84c-0.31-0.25-0.7-0.45-1.16-0.62
				c-0.51-0.18-0.94-0.35-1.29-0.51c-0.35-0.16-0.64-0.32-0.86-0.5c-0.22-0.18-0.38-0.37-0.48-0.57c-0.1-0.2-0.15-0.44-0.15-0.71
				c0-0.32,0.08-0.6,0.23-0.83c0.15-0.23,0.36-0.43,0.62-0.58c0.26-0.15,0.57-0.26,0.91-0.34c0.34-0.07,0.7-0.11,1.08-0.11
				c0.39,0,0.79,0.03,1.22,0.09c0.42,0.06,0.8,0.19,1.13,0.38v0.92h-0.19c-0.65-0.36-1.35-0.54-2.11-0.54
				c-0.53,0-0.93,0.08-1.22,0.23c-0.29,0.15-0.43,0.4-0.43,0.75c0,0.31,0.13,0.55,0.39,0.74c0.26,0.19,0.58,0.35,0.97,0.47
				c0.57,0.19,1.06,0.38,1.45,0.57c0.39,0.19,0.71,0.38,0.96,0.58c0.25,0.2,0.42,0.41,0.53,0.63c0.11,0.22,0.16,0.47,0.16,0.73
				c0,0.75-0.28,1.3-0.85,1.65c-0.57,0.35-1.37,0.53-2.4,0.53c-0.53,0-1.01-0.05-1.46-0.16C72.96,49.73,72.56,49.58,72.21,49.38z"/>
			<path class="st0" d="M89.65,49.86h-1.19v-6.65h-2.57v-0.8h6.33v0.8h-2.57V49.86z"/>
			<path class="st0" d="M102.93,42.29c0.56,0,1.04,0.08,1.42,0.24c0.38,0.16,0.68,0.4,0.91,0.72s0.39,0.72,0.48,1.2
				c0.09,0.48,0.14,1.05,0.14,1.69c0,0.64-0.05,1.21-0.14,1.69c-0.09,0.48-0.25,0.88-0.48,1.2s-0.53,0.56-0.91,0.72
				c-0.38,0.16-0.85,0.24-1.42,0.24c-0.56,0-1.03-0.08-1.41-0.24c-0.37-0.16-0.67-0.4-0.9-0.72s-0.38-0.72-0.47-1.2
				c-0.09-0.48-0.14-1.05-0.14-1.69c0-0.64,0.05-1.21,0.14-1.69c0.09-0.48,0.25-0.88,0.47-1.2s0.52-0.56,0.9-0.72
				C101.89,42.37,102.36,42.29,102.93,42.29z M102.93,43.07c-0.64,0-1.09,0.25-1.35,0.74c-0.26,0.49-0.39,1.27-0.39,2.34
				c0,1.07,0.13,1.85,0.39,2.34c0.26,0.49,0.71,0.74,1.35,0.74c0.64,0,1.09-0.25,1.36-0.74c0.27-0.49,0.4-1.27,0.4-2.34
				c0-1.07-0.13-1.85-0.4-2.34C104.02,43.31,103.56,43.07,102.93,43.07z"/>
			<path class="st0" d="M118.01,46.53l2.26,3.33h-1.5l-1.83-3.1h-1.53v3.1h-1.19v-7.45h2.29c1.1,0,1.91,0.18,2.42,0.55
				c0.51,0.37,0.76,0.88,0.76,1.52c0,0.55-0.15,0.99-0.46,1.33C118.91,46.16,118.51,46.4,118.01,46.53z M118.45,44.5
				c0-0.24-0.05-0.44-0.14-0.61c-0.09-0.16-0.22-0.3-0.38-0.4c-0.16-0.1-0.35-0.17-0.58-0.21c-0.23-0.04-0.47-0.07-0.73-0.07h-1.22
				v2.76h0.83c0.37,0,0.69-0.02,0.97-0.05c0.28-0.04,0.51-0.11,0.69-0.21c0.19-0.11,0.32-0.25,0.41-0.44
				C118.41,45.06,118.45,44.81,118.45,44.5z"/>
			<path class="st0" d="M133.7,49.86h-5.32v-7.45h5.19v0.8h-4v2.24h3.74v0.81h-3.74v2.79h4.12V49.86z"/>
		</g>
	</g>
</g>
</svg>
